<?xml version="1.0" encoding="UTF-8" standalone="no"?>
<svg
   xmlns:dc="http://purl.org/dc/elements/1.1/"
   xmlns:cc="http://creativecommons.org/ns#"
   xmlns:rdf="http://www.w3.org/1999/02/22-rdf-syntax-ns#"
   xmlns:svg="http://www.w3.org/2000/svg"
   xmlns="http://www.w3.org/2000/svg"
   xmlns:sodipodi="http://sodipodi.sourceforge.net/DTD/sodipodi-0.dtd"
   xmlns:inkscape="http://www.inkscape.org/namespaces/inkscape"
   width="1000px"
   height="1000px"
   viewBox="0 0 1000 1000"
   version="1.1"
   id="svg16"
   sodipodi:docname="telegram.svg"
   inkscape:version="1.0.2 (e86c870879, 2021-01-15)">
  <metadata
     id="metadata20">
    <rdf:RDF>
      <cc:Work
         rdf:about="">
        <dc:format>image/svg+xml</dc:format>
        <dc:type
           rdf:resource="http://purl.org/dc/dcmitype/StillImage" />
        <dc:title>Artboard</dc:title>
      </cc:Work>
    </rdf:RDF>
  </metadata>
  <sodipodi:namedview
     pagecolor="#ffffff"
     bordercolor="#666666"
     borderopacity="1"
     objecttolerance="10"
     gridtolerance="10"
     guidetolerance="10"
     inkscape:pageopacity="0"
     inkscape:pageshadow="2"
     inkscape:window-width="1920"
     inkscape:window-height="1019"
     id="namedview18"
     showgrid="false"
     inkscape:zoom="0.31748386"
     inkscape:cx="-203.47829"
     inkscape:cy="640.07983"
     inkscape:window-x="0"
     inkscape:window-y="33"
     inkscape:window-maximized="1"
     inkscape:current-layer="svg16"
     inkscape:document-rotation="0" />
  <!-- Generator: Sketch 53.2 (72643) - https://sketchapp.com -->
  <title
     id="title2">Artboard</title>
  <desc
     id="desc4">Created with Sketch.</desc>
  <defs
     id="defs11">
    <linearGradient
       x1="500"
       y1="0"
       x2="500"
       y2="992.58339"
       id="linearGradient-1"
       gradientUnits="userSpaceOnUse">
      <stop
         stop-color="#2AABEE"
         offset="0%"
         id="stop6" />
      <stop
         stop-color="#229ED9"
         offset="100%"
         id="stop8" />
    </linearGradient>
  </defs>
  <path
     d="M 84.635808,444.52045 C 343.17934,331.87714 515.58219,257.61579 601.84437,221.73636 c 246.296,-102.44303 297.4742,-120.23849 330.83145,-120.8261 7.3366,-0.12931 23.74072,1.68899 34.36663,10.31118 8.9723,7.28041 11.44093,17.11519 12.62225,24.01782 1.18132,6.90262 2.65236,22.62697 1.48301,34.91352 -13.34687,140.2367 -71.09856,480.55416 -100.47934,637.62166 -12.4321,66.46114 -36.91131,88.74523 -60.61001,90.92603 -51.5028,4.73936 -90.61164,-34.03664 -140.49463,-66.73554 C 601.50677,780.7976 557.40953,748.94577 481.64171,699.0159 394.0789,641.31329 450.84223,609.59895 500.74402,557.76881 513.80356,544.20462 740.72598,337.80114 745.11807,319.07712 c 0.5493,-2.34177 1.05908,-11.07071 -4.12662,-15.67992 -5.18572,-4.6092 -12.83939,-3.03304 -18.36249,-1.77949 -7.82883,1.77685 -132.52587,84.19696 -374.09112,247.26035 -35.39483,24.30484 -67.45439,36.14697 -96.17865,35.5264 C 220.69302,583.72032 159.77997,566.49992 114.4974,551.78033 58.956465,533.72617 14.813628,524.18079 18.657491,493.51924 20.659605,477.54879 42.652367,461.21587 84.635808,444.52045 Z"
     id="Path-3"
     fill="#ffffff"
     style="fill:#000000;fill-opacity:1;fill-rule:evenodd;stroke:none;stroke-width:1.77376" />
</svg>
